<svg xmlns="http://www.w3.org/2000/svg" width="251" height="45" viewBox="0 0 251 45">
  <metadata><?xpacket begin="﻿" id="W5M0MpCehiHzreSzNTczkc9d"?>
<x:xmpmeta xmlns:x="adobe:ns:meta/" x:xmptk="Adobe XMP Core 5.6-c138 79.159824, 2016/09/14-01:09:01        ">
   <rdf:RDF xmlns:rdf="http://www.w3.org/1999/02/22-rdf-syntax-ns#">
      <rdf:Description rdf:about=""/>
   </rdf:RDF>
</x:xmpmeta>
                                                                                                    
                                                                                                    
                                                                                                    
                                                                                                    
                                                                                                    
                                                                                                    
                                                                                                    
                                                                                                    
                                                                                                    
                                                                                                    
                                                                                                    
                                                                                                    
                                                                                                    
                                                                                                    
                                                                                                    
                                                                                                    
                                                                                                    
                                                                                                    
                                                                                                    
                                                                                                    
                           
<?xpacket end="w"?></metadata>
<defs>
    <style>
      .cls-1, .cls-2 {
        fill: #fff;
      }

      .cls-2 {
        fill-rule: evenodd;
      }
    </style>
  </defs>
  <circle id="Ellipse_1_copy_12" data-name="Ellipse 1 copy 12" class="cls-1" cx="235.5" cy="29.5" r="12.5"/>
  <path id="LUDES" class="cls-2" d="M2.476,41.384H29.313V29.8H16.036V1.382H2.476v40Zm62.913-.169a16.884,16.884,0,0,0,5.9-3.559,14.763,14.763,0,0,0,3.588-5.339A17.933,17.933,0,0,0,76.1,25.677V1.382H62.705V24.208A6.677,6.677,0,0,1,61.321,28.7a4.9,4.9,0,0,1-3.927,1.61,4.9,4.9,0,0,1-3.927-1.61,6.672,6.672,0,0,1-1.384-4.492V1.382H38.636v24.3a19.108,19.108,0,0,0,1.13,6.639,14.172,14.172,0,0,0,3.447,5.339A16.365,16.365,0,0,0,49,41.215a23.285,23.285,0,0,0,8.164,1.3A23.77,23.77,0,0,0,65.389,41.215ZM106.1,41.384a30.915,30.915,0,0,0,8.588-1.186,21.392,21.392,0,0,0,7.288-3.644,17.79,17.79,0,0,0,5.057-6.3,20.371,20.371,0,0,0,1.893-9.1,20.514,20.514,0,0,0-1.978-9.548,16.584,16.584,0,0,0-5.282-6.074,21.034,21.034,0,0,0-7.628-3.221,42.907,42.907,0,0,0-9.068-.932H90.051v40H106.1ZM105.984,12.8a10.1,10.1,0,0,1,6.78,2.168,7.526,7.526,0,0,1,2.542,6.053q0,4.674-2.542,6.73T105.475,29.8h-2.486V12.8h2.995Zm35.651,28.589h28.476V30.2h-15.82V26.468h13.956V16.016H154.291V12.569h14.86V1.382H141.635v40Zm60.229,0.254a16.415,16.415,0,0,0,5.283-2.656,13.6,13.6,0,0,0,3.785-4.463,13.118,13.118,0,0,0,1.441-6.3,9.68,9.68,0,0,0-1.3-5.2,12.327,12.327,0,0,0-3.305-3.531,19.166,19.166,0,0,0-4.379-2.345q-2.373-.9-4.52-1.582a25.819,25.819,0,0,1-3.022-1.13,1.447,1.447,0,0,1-.933-1.356,1.432,1.432,0,0,1,.9-1.384,5.631,5.631,0,0,1,2.373-.424,8.938,8.938,0,0,1,3.56.876,8.753,8.753,0,0,1,3.333,2.571l8.362-8.532a21.534,21.534,0,0,0-7.2-4.407A22.982,22.982,0,0,0,198.191.252a24.769,24.769,0,0,0-5.932.736,16.079,16.079,0,0,0-5.4,2.406,13.351,13.351,0,0,0-3.927,4.274,12.34,12.34,0,0,0-1.525,6.339,11.116,11.116,0,0,0,.847,4.557,10.05,10.05,0,0,0,2.289,3.254,13.754,13.754,0,0,0,3.305,2.293,29.477,29.477,0,0,0,3.9,1.613q2.089,0.681,3.475,1.189a17.86,17.86,0,0,1,2.175.934,3.528,3.528,0,0,1,1.1.82,1.515,1.515,0,0,1,.311.962,1.462,1.462,0,0,1-.932,1.472,5.215,5.215,0,0,1-2.063.4,10.57,10.57,0,0,1-4.83-1.187A13.124,13.124,0,0,1,187.23,27.6l-8.192,8.9a20.549,20.549,0,0,0,3.446,2.445,28.221,28.221,0,0,0,4.1,1.911,25.974,25.974,0,0,0,4.52,1.237,27.028,27.028,0,0,0,4.774.421A20.868,20.868,0,0,0,201.864,41.638Z"/>
</svg>
